<?xml version="1.0" encoding="UTF-8"?>
<svg width="68px" height="45px" viewBox="0 0 68 45" version="1.1" xmlns="http://www.w3.org/2000/svg" xmlns:xlink="http://www.w3.org/1999/xlink">
    <!-- Generator: Sketch 55 (78076) - https://sketchapp.com -->
    <title>_ionicons_svg_md-cloud-upload</title>
    <desc>Created with Sketch.</desc>
    <g id="Page-1" stroke="none" stroke-width="1" fill="none" fill-rule="evenodd">
        <g id="Login-Copy-2" transform="translate(-11.000000, -349.000000)" fill="#5C8ABD" fill-rule="nonzero">
            <g id="_ionicons_svg_md-cloud-upload" transform="translate(10.527273, 349.000000)">
                <path d="M55.2980106,17.0157656 C53.3141106,7.31278125 44.8141106,0 34.4727273,0 C26.2563439,0 19.1730106,4.64034375 15.6313439,11.3907656 C7.13134394,12.2346563 0.472727273,19.4059687 0.472727273,28.125 C0.472727273,37.4056875 8.12258561,45 17.4727273,45 L54.3060606,45 C62.0977273,45 68.4727273,38.671875 68.4727273,30.9375 C68.4727273,23.4846563 62.6649606,17.4373594 55.2980106,17.0157656 Z M39.0060606,25.3125 L39.0060606,36 L29.9393939,36 L29.9393939,25.3125 L20.3060606,25.3125 L34.4727273,11.25 L48.6393939,25.3125 L39.0060606,25.3125 Z" id="Shape"></path>
            </g>
        </g>
    </g>
</svg>