<?xml version="1.0" encoding="UTF-8"?>
<svg width="1440px" height="1024px" viewBox="0 0 1440 1024" version="1.1" xmlns="http://www.w3.org/2000/svg" xmlns:xlink="http://www.w3.org/1999/xlink">
    <!-- Generator: Sketch 55.1 (78136) - https://sketchapp.com -->
    <title>Base</title>
    <desc>Created with Sketch.</desc>
    <g id="Base" stroke="none" stroke-width="1" fill="none" fill-rule="evenodd">
        <rect fill="#F1F1F1" x="0" y="0" width="1440" height="1024"></rect>
        <polygon id="Path-12" stroke="#979797" fill="#5C8ABD" points="-1.13686838e-13 666.753196 1440 375.066125 1440 1024 -1.13686838e-13 1024"></polygon>
        <g id="_ionicons_svg_ios-settings" transform="translate(23.000000, 937.000000)" fill="#5C8ABD" fill-rule="nonzero">
            <path d="M50.4596354,27.4928404 C50.4596354,24.485811 52.3359375,21.9226764 55,20.8916949 C54.2981771,17.9562614 53.1380208,15.2069773 51.6054688,12.7154387 C50.6888021,13.1163759 49.7148438,13.3311638 48.7265625,13.3311638 C46.921875,13.3311638 45.1171875,12.6438427 43.7278646,11.2692007 C41.59375,9.13564176 41.1210938,5.99973965 42.2669271,3.39364749 C39.7890625,1.8614944 37.0247396,0.701640198 34.1028646,0 C33.0859375,2.64904973 30.5078125,4.5391825 27.5,4.5391825 C24.4921875,4.5391825 21.9140625,2.64904973 20.8971354,0 C17.9609375,0.701640198 15.2109375,1.8614944 12.71875,3.39364749 C13.8789063,5.98542046 13.3919271,9.13564176 11.2578125,11.2692007 C9.8828125,12.6438427 8.06380208,13.3311638 6.25911458,13.3311638 C5.27083333,13.3311638 4.296875,13.1306951 3.38020833,12.7154387 C1.86197917,15.2212965 0.701822917,17.9705806 0,20.9060141 C2.64973958,21.9226764 4.54036458,24.485811 4.54036458,27.5071596 C4.54036458,30.514189 2.6640625,33.0773236 0.0143229167,34.1083051 C0.716145833,37.0437386 1.87630208,39.7930227 3.40885417,42.2845613 C4.32552083,41.8836241 5.29947917,41.6831554 6.2734375,41.6831554 C8.078125,41.6831554 9.8828125,42.3704764 11.2721354,43.7451185 C13.3919271,45.8643582 13.8789062,49.0145795 12.7330729,51.6063525 C15.2252604,53.1385056 17.9895833,54.2983598 20.9114583,55 C21.9283854,52.3509503 24.4921875,50.4751367 27.5,50.4751367 C30.5078125,50.4751367 33.0716146,52.3509503 34.0885417,55 C37.0247396,54.2983598 39.7747396,53.1385056 42.2669271,51.6063525 C41.1210938,49.0145795 41.6080729,45.8786774 43.7278646,43.7451185 C45.1028646,42.3704764 46.9075521,41.6831554 48.7265625,41.6831554 C49.7005208,41.6831554 50.6888021,41.8836241 51.5911458,42.2845613 C53.1236979,39.7930227 54.2838542,37.0294194 54.9856771,34.1083051 C52.3502604,33.0773236 50.4596354,30.514189 50.4596354,27.4928404 Z M27.6289063,38.9338714 C21.2838542,38.9338714 16.1705729,33.793283 16.1705729,27.4785212 C16.1705729,21.1637594 21.2838542,16.023171 27.6289063,16.023171 C33.9739583,16.023171 39.0872396,21.1637594 39.0872396,27.4785212 C39.0872396,33.793283 33.9739583,38.9338714 27.6289063,38.9338714 Z" id="Shape"></path>
        </g>
        <g id="_ionicons_svg_ios-settings" transform="translate(23.000000, 937.000000)" fill="#5C8ABD" fill-rule="nonzero">
            <path d="M50.4596354,27.4928404 C50.4596354,24.485811 52.3359375,21.9226764 55,20.8916949 C54.2981771,17.9562614 53.1380208,15.2069773 51.6054688,12.7154387 C50.6888021,13.1163759 49.7148438,13.3311638 48.7265625,13.3311638 C46.921875,13.3311638 45.1171875,12.6438427 43.7278646,11.2692007 C41.59375,9.13564176 41.1210938,5.99973965 42.2669271,3.39364749 C39.7890625,1.8614944 37.0247396,0.701640198 34.1028646,0 C33.0859375,2.64904973 30.5078125,4.5391825 27.5,4.5391825 C24.4921875,4.5391825 21.9140625,2.64904973 20.8971354,0 C17.9609375,0.701640198 15.2109375,1.8614944 12.71875,3.39364749 C13.8789063,5.98542046 13.3919271,9.13564176 11.2578125,11.2692007 C9.8828125,12.6438427 8.06380208,13.3311638 6.25911458,13.3311638 C5.27083333,13.3311638 4.296875,13.1306951 3.38020833,12.7154387 C1.86197917,15.2212965 0.701822917,17.9705806 0,20.9060141 C2.64973958,21.9226764 4.54036458,24.485811 4.54036458,27.5071596 C4.54036458,30.514189 2.6640625,33.0773236 0.0143229167,34.1083051 C0.716145833,37.0437386 1.87630208,39.7930227 3.40885417,42.2845613 C4.32552083,41.8836241 5.29947917,41.6831554 6.2734375,41.6831554 C8.078125,41.6831554 9.8828125,42.3704764 11.2721354,43.7451185 C13.3919271,45.8643582 13.8789062,49.0145795 12.7330729,51.6063525 C15.2252604,53.1385056 17.9895833,54.2983598 20.9114583,55 C21.9283854,52.3509503 24.4921875,50.4751367 27.5,50.4751367 C30.5078125,50.4751367 33.0716146,52.3509503 34.0885417,55 C37.0247396,54.2983598 39.7747396,53.1385056 42.2669271,51.6063525 C41.1210938,49.0145795 41.6080729,45.8786774 43.7278646,43.7451185 C45.1028646,42.3704764 46.9075521,41.6831554 48.7265625,41.6831554 C49.7005208,41.6831554 50.6888021,41.8836241 51.5911458,42.2845613 C53.1236979,39.7930227 54.2838542,37.0294194 54.9856771,34.1083051 C52.3502604,33.0773236 50.4596354,30.514189 50.4596354,27.4928404 Z M27.6289063,38.9338714 C21.2838542,38.9338714 16.1705729,33.793283 16.1705729,27.4785212 C16.1705729,21.1637594 21.2838542,16.023171 27.6289063,16.023171 C33.9739583,16.023171 39.0872396,21.1637594 39.0872396,27.4785212 C39.0872396,33.793283 33.9739583,38.9338714 27.6289063,38.9338714 Z" id="Shape"></path>
        </g>
    </g>
</svg>