<?xml version="1.0" encoding="UTF-8"?>
<svg width="86px" height="77px" viewBox="0 0 86 77" version="1.1" xmlns="http://www.w3.org/2000/svg" xmlns:xlink="http://www.w3.org/1999/xlink">
    <!-- Generator: Sketch 55.2 (78181) - https://sketchapp.com -->
    <title>end-quote</title>
    <desc>Created with Sketch.</desc>
    <g id="end-quote" stroke="none" stroke-width="1" fill="none" fill-rule="evenodd">
        <g id="Group-4" transform="translate(19.000000, 18.000000)" fill-rule="nonzero" stroke="#5C8ABD">
            <path d="M10.05,1.98951966e-13 C15.75,1.98951966e-13 19.8,4.35 19.8,10.2 C19.8,13.05 19.35,15.3 17.4,20.85 L10.2,41.85 L0.75,41.85 L6.3,19.5 C2.55,18.15 5.68434189e-13,14.7 5.68434189e-13,10.2 C5.68434189e-13,4.2 4.35,1.98951966e-13 10.05,1.98951966e-13 Z" id="Path"></path>
            <path d="M38.4,1.98951966e-13 C44.1,1.98951966e-13 48.15,4.35 48.15,10.2 C48.15,13.05 47.7,15.3 45.75,20.85 L38.55,41.85 L29.1,41.85 L34.65,19.5 C30.9,18.15 28.35,14.7 28.35,10.2 C28.35,4.2 32.7,1.98951966e-13 38.4,1.98951966e-13 Z" id="Path"></path>
        </g>
    </g>
</svg>