<?xml version="1.0" encoding="UTF-8"?>
<svg width="79px" height="73px" viewBox="0 0 79 73" version="1.1" xmlns="http://www.w3.org/2000/svg" xmlns:xlink="http://www.w3.org/1999/xlink">
    <!-- Generator: Sketch 55.2 (78181) - https://sketchapp.com -->
    <title>_ionicons_svg_md-thumbs-up</title>
    <desc>Created with Sketch.</desc>
    <g id="Page-1" stroke="none" stroke-width="1" fill="none" fill-rule="evenodd">
        <g id="Validate" transform="translate(-455.000000, -673.000000)" fill="#FFFFFF">
            <g id="_ionicons_svg_md-thumbs-up" transform="translate(455.000000, 673.000000)">
                <path d="M28.4924261,73 L61.1637413,73 C64.1459485,73 66.5962972,71.175 67.6600144,68.5515625 L78.5061313,42.8114583 C78.8290454,41.975 79,41.1005208 79,40.15 L79,32.8119792 C79,28.8007813 75.7708584,24.3333333 71.8199086,24.3333333 L49.1779274,24.3333333 L52.5970185,8.83984375 L52.7109882,7.69921875 C52.7109882,6.19739583 52.1031498,4.82864583 51.1344073,3.84010417 L47.2974273,0 L23.3637894,24.2002604 C22.0721327,25.5119792 21.2743448,27.3369792 21.2743448,29.3520833 L21.2743448,65.8520833 C21.2743448,69.8632812 24.5414763,73 28.4924261,73 Z M0,30.4166667 L12.1567685,30.4166667 L12.1567685,73 L0,73 L0,30.4166667 Z" id="Shape"></path>
            </g>
        </g>
    </g>
</svg>