<?xml version="1.0" encoding="UTF-8"?>
<svg width="117px" height="71px" viewBox="0 0 117 71" version="1.1" xmlns="http://www.w3.org/2000/svg" xmlns:xlink="http://www.w3.org/1999/xlink">
    <!-- Generator: Sketch 55.1 (78136) - https://sketchapp.com -->
    <title>Group 5</title>
    <desc>Created with Sketch.</desc>
    <g id="Page-1" stroke="none" stroke-width="1" fill="none" fill-rule="evenodd">
        <g id="Uploads" transform="translate(-320.000000, -287.000000)">
            <g id="Group-5" transform="translate(321.000000, 288.400000)">
                <polygon id="Path-23" stroke="#979797" fill="#504E4E" points="115.185271 69 80.6852707 34.5 115.185271 0 4.33439245e-14 0 4.97379915e-14 69"></polygon>
                <g id="Group" transform="translate(27.000000, 12.600000)" fill="#4DBAED" fill-rule="nonzero">
                    <polygon id="Z" points="22.5196581 29.3842857 31 29.3842857 31 31 20 31 20 29.7371429 28.2735043 19.6157143 20.1316239 19.6157143 20.1316239 18 30.7555556 18 30.7555556 19.2628571"></polygon>
                    <polygon id="Z-Copy-2" points="3.43589744 15.7628571 15 15.7628571 15 18 0 18 0 16.2514286 11.2820513 2.23714286 0.179487179 2.23714286 0.179487179 0 14.6666667 0 14.6666667 1.74857143"></polygon>
                    <polygon id="Z-Copy" points="7.83247863 41.8814286 14 41.8814286 14 43 6 43 6 42.1257143 12.017094 35.1185714 6.0957265 35.1185714 6.0957265 34 13.8222222 34 13.8222222 34.8742857"></polygon>
                </g>
            </g>
        </g>
    </g>
</svg>