<?xml version="1.0" encoding="UTF-8"?>
<svg width="40px" height="56px" viewBox="0 0 40 56" version="1.1" xmlns="http://www.w3.org/2000/svg" xmlns:xlink="http://www.w3.org/1999/xlink">
    <!-- Generator: Sketch 55 (78076) - https://sketchapp.com -->
    <title>_ionicons_svg_md-mic</title>
    <desc>Created with Sketch.</desc>
    <g id="Page-1" stroke="none" stroke-width="1" fill="none" fill-rule="evenodd">
        <g id="Login-Copy" transform="translate(-25.000000, -142.000000)" fill="#5C8ABD" fill-rule="nonzero">
            <g id="_ionicons_svg_md-mic" transform="translate(25.000000, 142.500000)">
                <path d="M19.6428571,35.3571429 C24.2726786,35.3571429 28.0611719,31.5606696 28.0611719,26.9212723 L28.0611719,8.43587054 C28.0611719,3.79647321 24.2726786,0 19.6428571,0 C15.0130357,0 11.2245424,3.79647321 11.2245424,8.43587054 L11.2245424,26.9212723 C11.2245424,31.5606696 15.0130357,35.3571429 19.6428571,35.3571429 Z M34.5148326,26.0940625 C34.5148326,34.529933 27.3596763,40.4351897 19.6428571,40.4351897 C11.9260379,40.4351897 4.7708817,34.5298103 4.7708817,26.0940625 L0,26.0940625 C0,35.6543638 7.57710937,43.6686496 16.836875,44.9346317 L16.836875,55 L22.4489621,55 L22.4489621,44.9346317 C31.7086049,43.5286942 39.2857143,35.6543638 39.2857143,26.0940625 L34.5148326,26.0940625 Z" id="Shape"></path>
            </g>
        </g>
    </g>
</svg>