<?xml version="1.0" encoding="UTF-8"?>
<svg width="86px" height="77px" viewBox="0 0 86 77" version="1.1" xmlns="http://www.w3.org/2000/svg" xmlns:xlink="http://www.w3.org/1999/xlink">
    <!-- Generator: Sketch 55.2 (78181) - https://sketchapp.com -->
    <title>start-quote</title>
    <desc>Created with Sketch.</desc>
    <g id="start-quote" stroke="none" stroke-width="1" fill="none" fill-rule="evenodd">
        <g id="Group-5" transform="translate(19.000000, 18.000000)" fill-rule="nonzero" stroke="#5C8ABD">
            <path d="M13.65,22.35 C17.55,23.7 19.95,27 19.95,31.65 C19.95,37.65 15.6,41.85 10.05,41.85 C4.2,41.85 3.41060513e-13,37.5 3.41060513e-13,31.65 C3.41060513e-13,28.8 0.6,26.55 2.7,21 L9.75,-2.55795385e-13 L19.2,-2.55795385e-13 L13.65,22.35 Z" id="Path"></path>
            <path d="M42,22.35 C45.9,23.7 48.3,27 48.3,31.65 C48.3,37.65 43.95,41.85 38.4,41.85 C32.55,41.85 28.35,37.5 28.35,31.65 C28.35,28.8 28.95,26.55 31.05,21 L38.1,-2.55795385e-13 L47.55,-2.55795385e-13 L42,22.35 Z" id="Path"></path>
        </g>
    </g>
</svg>